<?xml version="1.0" encoding="iso-8859-1"?>
<!-- Generator: Adobe Illustrator 16.0.0, SVG Export Plug-In . SVG Version: 6.00 Build 0)  -->
<!DOCTYPE svg PUBLIC "-//W3C//DTD SVG 1.1//EN" "http://www.w3.org/Graphics/SVG/1.1/DTD/svg11.dtd">
<svg version="1.1" id="Capa_1" xmlns="http://www.w3.org/2000/svg" xmlns:xlink="http://www.w3.org/1999/xlink" x="0px" y="0px"
	 width="612px" height="612px" viewBox="0 0 612 612" style="enable-background:new 0 0 612 612;" xml:space="preserve">
<g>
	<g>
		<path d="M524.663,204h-24.286V53.429C500.377,24.966,469.379,0,438.77,0H195.913c-4.498,0-7.714,2.078-10.473,5.634
			l-63.541,82.387L37.541,189.846c-2.798,3.371-3.828,7.752-3.051,11.949c-1.01,2.312-0.397,4.983-0.397,7.732v349.044
			c0,30.95,16.631,53.429,45.249,53.429H438.77c30.609,0,61.607-24.966,61.607-53.429V398.285h24.287
			c29.512,0,53.428-23.926,53.428-53.428v-87.429C578.092,227.927,554.176,204,524.663,204z M548.949,344.857
			c0,13.415-10.871,24.285-24.286,24.285H340.092c-13.416,0-24.285-10.87-24.285-24.285v-87.429
			c0-13.416,10.869-24.286,24.285-24.286h184.571c13.415,0,24.286,10.87,24.286,24.286V344.857z M189.52,57.091v98.532
			c0,12.716-22.051,28.949-36.079,28.949H85.82l42.801-56.761L189.52,57.091z M471.234,558.571
			c0,12.259-18.176,24.286-32.465,24.286H79.341c-13.989,0-16.106-12.201-16.106-24.286V214.521l0.612-0.806h89.595
			c30.25,0,65.222-29.328,65.222-58.092V29.143H438.77c14.289,0,32.465,12.026,32.465,24.286V204H340.092
			c-29.512,0-53.428,23.927-53.428,53.429v87.429c0,29.502,23.917,53.428,53.428,53.428h131.143V558.571z"/>
		<path d="M368.982,285.163c-2.051,0-3.73,0.709-5.033,2.127c-1.291,1.429-1.941,3.565-1.941,6.412v54.778
			c0,2.847,0.65,4.993,1.971,6.431c1.312,1.447,2.973,2.167,5.004,2.167c2.117,0,3.826-0.72,5.148-2.147
			c1.311-1.418,1.962-3.565,1.962-6.45v-54.779c0-2.885-0.651-5.021-1.962-6.431C372.809,285.872,371.1,285.163,368.982,285.163z"/>
		<path d="M443.258,298.258c-1.068-2.652-2.643-4.916-4.712-6.732c-2.079-1.846-4.536-3.156-7.383-3.953
			c-2.876-0.816-6.985-1.225-12.337-1.225h-18.068c-3.09,0-5.363,0.66-6.781,1.991c-1.428,1.321-2.137,3.546-2.137,6.636v53.604
			c0,2.787,0.65,4.896,1.943,6.333c1.301,1.447,3.011,2.167,5.129,2.167c2.029,0,3.691-0.738,5.021-2.187
			c1.331-1.457,1.992-3.584,1.992-6.411v-19.672h12.9c8.636,0,15.135-1.846,19.496-5.488c4.361-3.662,6.547-9.015,6.547-16.105
			C444.869,303.892,444.336,300.92,443.258,298.258z M428.842,313.723c-1.166,1.574-2.866,2.711-5.1,3.41
			c-2.225,0.689-5.004,1.049-8.326,1.049h-9.49v-21.254h9.49c6.295,0,10.453,1.029,12.473,3.079
			c1.808,1.933,2.701,4.439,2.701,7.489C430.59,310.061,430.018,312.13,428.842,313.723z"/>
		<path d="M487.322,298.297c-0.855-2.234-1.555-4.041-2.109-5.392c-0.553-1.321-1.232-2.594-2.039-3.75
			c-0.807-1.185-1.865-2.127-3.178-2.885c-1.311-0.738-2.943-1.107-4.914-1.107c-1.924,0-3.547,0.369-4.857,1.107
			c-1.312,0.758-2.371,1.72-3.177,2.914c-0.806,1.214-1.563,2.72-2.272,4.537c-0.709,1.826-1.322,3.38-1.836,4.672l-17.787,45.152
			c-0.719,1.807-1.244,3.206-1.564,4.235c-0.311,1.001-0.477,1.991-0.477,2.943c0,1.623,0.69,3.109,2.041,4.4
			c1.369,1.303,2.934,1.953,4.701,1.953c2.089,0,3.594-0.612,4.508-1.846c0.913-1.215,2.03-3.546,3.312-7.033l3.322-8.918h28.269
			l3.322,8.724c0.446,1.078,0.981,2.312,1.593,3.721c0.622,1.428,1.195,2.468,1.729,3.128c0.544,0.689,1.204,1.233,1.991,1.612
			c0.797,0.398,1.748,0.612,2.846,0.612c1.895,0,3.518-0.69,4.867-2.031c1.342-1.33,2.012-2.807,2.012-4.42
			c0-1.554-0.709-4.041-2.137-7.46L487.322,298.297z M464.697,328.712l10.297-28.705l10.481,28.705H464.697z"/>
	</g>
</g>
<g>
</g>
<g>
</g>
<g>
</g>
<g>
</g>
<g>
</g>
<g>
</g>
<g>
</g>
<g>
</g>
<g>
</g>
<g>
</g>
<g>
</g>
<g>
</g>
<g>
</g>
<g>
</g>
<g>
</g>
</svg>
